# xmcd CD database file
#
# Track frame offsets:
#	150
#	15075
#	36082
#	55747
#	74627
#	88055
#	105502
#	122960
#	144412
#	158570
#	172952
#	190977
#
# Disc length: 2741 seconds
#
# Revision: 2
# Processed by: cddbd v1.5.1PL2 Copyright (c) Steve Scherf et al.
# Submitted via: CDex 1.51
#
DISCID=970ab30c
DTITLE=Alyson Jay - Bones in the Back Yard
DYEAR=2006
DGENRE=Blues
TTITLE0=The Spell
TTITLE1=Bad Girl
TTITLE2=Vampire Song
TTITLE3=Stay Awhile
TTITLE4=Southbound
TTITLE5=Lilies of the Valley
TTITLE6=Las Good-bye
TTITLE7=Gila Monster Angels
TTITLE8=Drifting
TTITLE9=A Song for Ghalib
TTITLE10=Chasing Birds
TTITLE11=800 Miles
EXTD=YEAR: 2006
EXTT0=
EXTT1=
EXTT2=
EXTT3=
EXTT4=
EXTT5=
EXTT6=
EXTT7=
EXTT8=
EXTT9=
EXTT10=
EXTT11=
PLAYORDER=
